<svg data-v-423bf9ae="" xmlns="http://www.w3.org/2000/svg" viewBox="0 0 988 90" class="iconLeft"><!----><!----><!----><g data-v-423bf9ae="" id="e0d53e19-4d6b-4cbf-8b53-9efafb449f2d" fill="#000000" transform="matrix(3.9708803020048684,0,0,3.9708803020048684,116.64704664952671,14.999999523162842)"><path d="M10.23 1.92L10.23 1.92L10.23 1.92Q10.23 3.54 8.60 5.38L8.60 5.38L8.60 5.38Q7.97 6.08 4.98 8.71L4.98 8.71L4.98 9.41L4.98 9.41Q5.33 9.70 5.99 10.18L5.99 10.18L5.99 10.18Q5.98 10.44 5.08 11.49L5.08 11.49L5.08 11.49Q4.13 12.60 3.65 12.60L3.65 12.60L3.65 12.60Q3.61 12.60 3.22 12.31L3.22 12.31L3.22 12.31Q2.67 11.89 2.56 11.82L2.56 11.82L2.56 5.43L2.56 5.43Q2.51 5.19 2.44 4.69L2.44 4.69L2.44 4.69Q1.15 3.84 1.16 3.84L1.16 3.84L1.16 3.84Q1.11 3.84 0.81 4.03L0.81 4.03L0.81 4.03Q0.43 4.26 0.31 4.33L0.31 4.33L0.01 4.27L0.01 4.27Q-0.11 3.77 1.36 2.53L1.36 2.53L1.36 2.53Q2.79 1.34 3.35 1.34L3.35 1.34L3.35 1.34Q3.53 1.34 4.09 1.75L4.09 1.75L4.09 1.75Q4.65 2.16 4.66 2.16L4.66 2.16L4.66 2.16Q6.90 0 7.90 0L7.90 0L7.90 0Q8.22 0 8.83 0.24L8.83 0.24L8.83 0.24Q9.67 0.57 10.11 1.12L10.11 1.12L10.11 1.12Q10.23 1.29 10.23 1.92ZM7.81 4.00L7.81 4.00L7.81 4.00Q7.81 3.44 6.94 2.90L6.94 2.90L6.94 2.90Q6.19 2.42 5.68 2.42L5.68 2.42L5.68 2.42Q5.64 2.42 4.98 2.84L4.98 2.84L4.98 7.64L4.98 7.64Q5.80 6.82 6.72 6.10L6.72 6.10L6.72 6.10Q7.43 5.57 7.59 5.32L7.59 5.32L7.59 5.32Q7.81 4.93 7.81 4.00ZM17.74 9.81L17.74 9.81L17.74 9.81Q17.74 10.32 16.41 11.31L16.41 11.31L16.41 11.31Q15.26 12.17 14.91 12.26L14.91 12.26L14.91 12.26Q14.38 12.42 14.03 12.42L14.03 12.42L14.03 12.42Q13.66 12.42 12.82 12.16L12.82 12.16L12.82 12.16Q11.97 11.90 11.70 11.69L11.70 11.69L11.70 11.69Q10.86 11.03 10.86 9.41L10.86 9.41L10.86 9.41Q10.86 6.57 14.63 4.51L14.63 4.51L14.63 4.51Q14.73 4.69 15.18 4.87L15.18 4.87L15.18 4.87Q15.64 5.05 16.11 5.05L16.11 5.05L16.11 5.05Q16.38 5.05 16.51 4.96L16.51 4.96L16.51 4.96Q16.69 4.83 16.93 4.76L16.93 4.76L16.93 4.76Q16.98 4.82 16.98 4.89L16.98 4.89L16.98 4.89Q16.98 5.05 16.59 5.52L16.59 5.52L16.59 5.52Q15.41 6.89 14.46 6.89L14.46 6.89L14.46 6.89Q14.20 6.89 13.71 6.76L13.71 6.76L13.71 6.76Q13.17 6.62 12.98 6.48L12.98 6.48L12.98 6.48Q12.88 6.66 12.74 7.08L12.74 7.08L12.75 8.04L12.75 8.04Q12.77 8.01 13.07 7.79L13.07 7.79L13.07 7.79Q13.37 7.57 13.47 7.57L13.47 7.57L13.47 7.57Q14.52 7.78 14.60 7.78L14.60 7.78L14.60 7.78Q15.54 7.78 15.97 7.49L15.97 7.49L15.97 7.49Q16.72 6.99 17.04 6.87L17.04 6.87L17.08 7.01L17.08 7.01Q16.42 8.08 15.39 8.81L15.39 8.81L15.39 8.81Q14.35 9.55 13.34 9.65L13.34 9.65L13.34 9.65Q13.48 9.91 14.29 10.25L14.29 10.25L14.29 10.25Q15.11 10.58 15.68 10.58L15.68 10.58L15.68 10.58Q16.24 10.58 16.69 10.28L16.69 10.28L16.69 10.28Q17.36 9.81 17.68 9.69L17.68 9.69L17.68 9.69Q17.74 9.74 17.74 9.81ZM24.78 5.14L24.96 5.19L24.96 5.19Q24.89 5.73 24.00 6.50L24.00 6.50L24.00 6.50Q23.11 7.28 22.47 7.43L22.47 7.43L22.47 9.17L22.47 9.17Q22.47 9.35 22.30 10.02L22.30 10.02L22.30 10.02Q21.97 11.40 21.62 12.07L21.62 12.07L21.62 12.07Q20.93 13.38 19.71 13.85L19.71 13.85L19.71 13.85Q19.78 13.72 20.17 12.47L20.17 12.47L20.17 12.47Q20.58 11.13 20.58 10.79L20.58 10.79L20.58 7.21L20.58 7.21Q20.22 7.00 19.80 7.00L19.80 7.00L19.80 7.00Q19.43 7.00 19.08 7.15L19.08 7.15L19.08 7.15Q19.00 7.18 18.41 7.52L18.41 7.52L18.23 7.46L18.23 7.46Q18.30 7.00 19.12 6.26L19.12 6.26L19.12 6.26Q19.84 5.61 20.51 5.26L20.51 5.26L20.51 3.84L20.51 3.84Q20.51 3.78 20.20 3.48L20.20 3.48L20.20 3.48Q19.88 3.18 19.84 3.18L19.84 3.18L19.84 3.18Q19.81 3.18 19.66 3.26L19.66 3.26L19.66 3.26Q19.50 3.35 19.33 3.32L19.33 3.32L19.33 3.32Q19.45 2.98 20.22 2.13L20.22 2.13L20.22 2.13Q21.07 1.18 21.49 1.18L21.49 1.18L21.49 1.18Q21.56 1.18 22.39 2.00L22.39 2.00L22.39 4.76L22.39 4.76Q22.39 5.31 22.78 5.46L22.78 5.46L22.78 5.46Q22.97 5.54 23.55 5.54L23.55 5.54L23.55 5.54Q23.95 5.54 24.05 5.52L24.05 5.52L24.05 5.52Q24.15 5.49 24.78 5.14L24.78 5.14ZM32.72 9.81L32.72 9.81L32.72 9.81Q32.72 10.32 31.39 11.31L31.39 11.31L31.39 11.31Q30.24 12.17 29.89 12.26L29.89 12.26L29.89 12.26Q29.36 12.42 29.01 12.42L29.01 12.42L29.01 12.42Q28.64 12.42 27.80 12.16L27.80 12.16L27.80 12.16Q26.95 11.90 26.68 11.69L26.68 11.69L26.68 11.69Q25.84 11.03 25.84 9.41L25.84 9.41L25.84 9.41Q25.84 6.57 29.61 4.51L29.61 4.51L29.61 4.51Q29.71 4.69 30.16 4.87L30.16 4.87L30.16 4.87Q30.62 5.05 31.09 5.05L31.09 5.05L31.09 5.05Q31.36 5.05 31.49 4.96L31.49 4.96L31.49 4.96Q31.67 4.83 31.91 4.76L31.91 4.76L31.91 4.76Q31.96 4.82 31.96 4.89L31.96 4.89L31.96 4.89Q31.96 5.05 31.57 5.52L31.57 5.52L31.57 5.52Q30.39 6.89 29.44 6.89L29.44 6.89L29.44 6.89Q29.18 6.89 28.69 6.76L28.69 6.76L28.69 6.76Q28.15 6.62 27.96 6.48L27.96 6.48L27.96 6.48Q27.86 6.66 27.72 7.08L27.72 7.08L27.73 8.04L27.73 8.04Q27.75 8.01 28.05 7.79L28.05 7.79L28.05 7.79Q28.35 7.57 28.45 7.57L28.45 7.57L28.45 7.57Q29.50 7.78 29.58 7.78L29.58 7.78L29.58 7.78Q30.52 7.78 30.95 7.49L30.95 7.49L30.95 7.49Q31.70 6.99 32.02 6.87L32.02 6.87L32.06 7.01L32.06 7.01Q31.40 8.08 30.37 8.81L30.37 8.81L30.37 8.81Q29.33 9.55 28.32 9.65L28.32 9.65L28.32 9.65Q28.46 9.91 29.27 10.25L29.27 10.25L29.27 10.25Q30.09 10.58 30.66 10.58L30.66 10.58L30.66 10.58Q31.22 10.58 31.67 10.28L31.67 10.28L31.67 10.28Q32.34 9.81 32.66 9.69L32.66 9.69L32.66 9.69Q32.72 9.74 32.72 9.81ZM41.36 4.54L41.58 4.54L41.58 4.54Q41.29 5.38 40.31 6.20L40.31 6.20L40.31 6.20Q39.33 7.03 38.51 7.03L38.51 7.03L38.51 7.03Q37.93 7.03 37.62 6.90L37.62 6.90L37.62 6.90Q37.24 6.73 36.96 6.27L36.96 6.27L36.96 6.27Q36.71 6.44 36.50 6.66L36.50 6.66L36.50 10.11L36.50 10.11Q36.58 10.16 36.86 10.54L36.86 10.54L36.86 10.54Q37.14 10.91 37.14 10.92L37.14 10.92L37.14 10.92Q37.14 11.38 36.22 12.17L36.22 12.17L36.22 12.17Q35.41 12.85 35.15 12.91L35.15 12.91L35.15 12.91Q34.76 12.38 34.44 12.07L34.44 12.07L34.44 8.60L34.44 8.60Q34.44 8.54 34.40 8.48L34.40 8.48L34.40 8.48Q34.37 8.43 34.37 8.39L34.37 8.39L34.37 6.90L34.37 6.90Q33.59 6.23 33.54 6.23L33.54 6.23L33.54 6.23Q33.52 6.23 32.97 6.55L32.97 6.55L32.77 6.50L32.77 6.50Q32.87 6.16 33.75 5.19L33.75 5.19L33.75 5.19Q34.76 4.09 35.29 4.09L35.29 4.09L35.29 4.09Q35.39 4.09 35.83 4.44L35.83 4.44L35.83 4.44Q36.11 4.68 36.40 4.90L36.40 4.90L36.40 4.90Q36.40 5.21 36.44 5.87L36.44 5.87L36.44 5.87Q37.59 4.68 38.82 4.00L38.82 4.00L38.82 4.00Q39.09 4.58 39.47 4.80L39.47 4.80L39.47 4.80Q39.79 4.97 40.38 4.97L40.38 4.97L40.38 4.97Q40.60 4.97 40.81 4.87L40.81 4.87L40.81 4.87Q41.08 4.70 41.36 4.54L41.36 4.54ZM49.87 4.40L49.87 4.40L49.87 4.40Q48.80 6.72 46.38 6.72L46.38 6.72L46.38 6.72Q46.13 6.72 44.83 6.45L44.83 6.45L44.83 6.45Q45.04 7.01 46.17 7.25L46.17 7.25L46.17 7.25Q47.87 7.63 48.09 7.73L48.09 7.73L48.09 7.73Q49.07 8.16 49.07 9.23L49.07 9.23L49.07 9.23Q49.07 9.87 47.57 11.23L47.57 11.23L47.57 11.23Q46.17 12.50 45.88 12.50L45.88 12.50L45.88 12.50Q45.93 12.50 45.02 12.14L45.02 12.14L45.02 12.14Q44.11 11.79 43.43 11.79L43.43 11.79L43.43 11.79Q42.91 11.79 42.27 11.94L42.27 11.94L42.27 11.94Q41.94 12.03 41.62 12.11L41.62 12.11L41.62 12.11Q42.36 10.77 43.30 10.25L43.30 10.25L43.30 10.25Q44.03 9.86 45.18 9.86L45.18 9.86L45.18 9.86Q45.49 9.86 46.03 10.00L46.03 10.00L46.03 10.00Q46.68 10.15 46.90 10.18L46.90 10.18L46.90 10.18Q46.33 9.55 45.14 9.30L45.14 9.30L45.14 9.30Q43.57 8.97 43.39 8.89L43.39 8.89L43.39 8.89Q42.60 8.53 42.60 7.46L42.60 7.46L42.60 7.46Q42.60 6.87 43.80 5.45L43.80 5.45L43.80 5.45Q45.00 4.03 45.63 4.03L45.63 4.03L45.63 4.03Q45.60 4.03 46.46 4.41L46.46 4.41L46.46 4.41Q47.32 4.79 48.15 4.79L48.15 4.79L48.15 4.79Q48.62 4.79 49.08 4.63L49.08 4.63L49.08 4.63Q49.69 4.42 49.87 4.40ZM59.09 7.03L59.09 7.03L59.09 7.03Q59.09 8.20 57.72 9.55L57.72 9.55L57.72 9.55Q56.35 10.78 54.99 12.01L54.99 12.01L54.99 12.01Q54.84 12.17 54.33 12.26L54.33 12.26L54.33 12.26Q53.89 12.36 53.52 12.36L53.52 12.36L53.52 12.36Q52.54 12.36 51.66 11.56L51.66 11.56L51.66 11.56Q50.74 10.72 50.74 9.67L50.74 9.67L50.74 9.67Q50.74 8.26 51.86 6.47L51.86 6.47L51.86 6.47Q53.02 4.61 54.45 3.89L54.45 3.89L54.45 3.89Q54.46 3.92 54.45 4.06L54.45 4.06L54.45 4.06Q54.45 4.17 54.50 4.17L54.50 4.17L54.50 4.17Q54.64 4.17 55.18 4.03L55.18 4.03L55.18 4.03Q55.72 3.89 56.15 3.89L56.15 3.89L56.15 3.89Q57.41 3.89 58.28 4.89L58.28 4.89L58.28 4.89Q59.09 5.82 59.09 7.03ZM56.94 9.32L56.94 9.32L56.94 8.29L56.94 8.29Q56.94 7.77 56.20 6.97L56.20 6.97L56.20 6.97Q55.47 6.17 55.02 6.09L55.02 6.09L55.02 6.09Q54.43 5.99 54.25 5.99L54.25 5.99L54.25 5.99Q53.37 5.99 53.09 6.45L53.09 6.45L53.09 6.45Q52.89 6.79 52.89 7.76L52.89 7.76L52.89 7.76Q52.89 8.71 53.72 9.48L53.72 9.48L53.72 9.48Q54.54 10.25 55.43 10.25L55.43 10.25L55.43 10.25Q55.92 10.25 56.11 10.12L56.11 10.12L56.11 10.12Q56.25 10.04 56.94 9.32ZM69.36 10.50L69.36 10.50L69.36 10.50Q69.36 10.86 68.51 11.66L68.51 11.66L68.51 11.66Q67.66 12.46 67.38 12.46L67.38 12.46L67.38 12.46Q67.40 12.46 67.00 12.32L67.00 12.32L67.00 12.32Q66.61 12.18 66.30 12.18L66.30 12.18L66.30 12.18Q66.30 12.18 65.48 12.25L65.48 12.25L65.48 12.25Q65.38 12.17 65.38 12.11L65.38 12.11L65.38 12.11Q66.70 10.14 66.70 8.62L66.70 8.62L66.70 8.62Q66.70 7.57 66.71 8.12L66.71 8.12L66.71 8.12Q66.70 7.78 66.51 7.34L66.51 7.34L66.51 7.34Q66.43 7.11 66.33 6.88L66.33 6.88L66.33 6.88Q66.22 6.65 66.01 6.51L66.01 6.51L66.01 6.51Q65.63 6.24 65.07 6.01L65.07 6.01L65.07 6.01Q64.43 5.71 64.06 5.71L64.06 5.71L64.06 5.71Q63.78 5.71 63.71 5.77L63.71 5.77L63.71 5.77Q63.38 6.05 63.27 6.12L63.27 6.12L63.27 8.27L63.27 8.27Q63.27 8.79 63.10 9.98L63.10 9.98L63.10 9.98Q63.20 10.07 63.71 10.43L63.71 10.43L63.71 10.43Q64.12 10.71 64.12 10.77L64.12 10.77L64.12 10.77Q64.12 11.07 63.26 11.91L63.26 11.91L63.26 11.91Q62.40 12.74 62.12 12.74L62.12 12.74L62.12 12.74Q61.88 12.74 61.43 12.31L61.43 12.31L61.43 12.31Q60.97 11.89 60.97 11.70L60.97 11.70L60.97 11.70Q60.97 11.66 61.05 10.99L61.05 10.99L61.05 10.99Q61.14 10.32 61.14 10.26L61.14 10.26L61.14 7.50L61.14 7.50Q61.14 7.43 61.22 7.17L61.22 7.17L61.22 7.17Q61.03 7.04 60.09 6.41L60.09 6.41L60.09 6.41Q59.64 6.73 59.49 6.73L59.49 6.73L59.49 6.73Q59.44 6.73 59.40 6.72L59.40 6.72L59.40 6.72Q59.39 6.27 60.37 5.28L60.37 5.28L60.37 5.28Q61.35 4.28 61.82 4.28L61.82 4.28L61.82 4.28Q61.95 4.28 62.55 4.65L62.55 4.65L62.55 4.65Q63.24 5.05 63.36 5.31L63.36 5.31L63.36 5.31Q64.22 4.41 64.67 4.09L64.67 4.09L64.67 4.09Q65.30 3.64 65.91 3.64L65.91 3.64L65.91 3.64Q66.26 3.64 66.84 3.82L66.84 3.82L66.84 3.82Q67.63 4.09 68.18 4.58L68.18 4.58L68.18 4.58Q68.43 4.80 68.64 5.56L68.64 5.56L68.64 5.56Q68.82 6.23 68.82 6.69L68.82 6.69L68.82 6.69Q68.82 8.11 67.72 10.07L67.72 10.07L67.72 10.07Q68.18 10.11 68.64 10.15L68.64 10.15L68.64 10.15Q69.36 10.25 69.36 10.50ZM73.78 2.48L73.78 2.48L73.78 2.48Q73.78 3.29 72.84 4.44L72.84 4.44L72.84 4.44Q71.90 5.59 71.05 5.75L71.05 5.75L71.05 5.75Q71.30 5.25 71.65 4.76L71.65 4.76L71.65 4.76Q71.75 4.63 71.75 4.05L71.75 4.05L71.75 4.05Q71.75 3.84 71.25 3.33L71.25 3.33L71.25 3.33Q71.19 3.36 70.97 3.52L70.97 3.52L70.97 3.52Q70.74 3.68 70.69 3.68L70.69 3.68L70.48 3.68L70.48 3.68Q70.50 3.40 71.34 2.34L71.34 2.34L71.34 2.34Q72.30 1.13 72.83 1.13L72.83 1.13L72.83 1.13Q73.23 1.13 73.53 1.68L73.53 1.68L73.53 1.68Q73.78 2.13 73.78 2.48ZM83.66 4.40L83.66 4.40L83.66 4.40Q82.60 6.72 80.18 6.72L80.18 6.72L80.18 6.72Q79.93 6.72 78.62 6.45L78.62 6.45L78.62 6.45Q78.83 7.01 79.97 7.25L79.97 7.25L79.97 7.25Q81.66 7.63 81.89 7.73L81.89 7.73L81.89 7.73Q82.87 8.16 82.87 9.23L82.87 9.23L82.87 9.23Q82.87 9.87 81.37 11.23L81.37 11.23L81.37 11.23Q79.97 12.50 79.67 12.50L79.67 12.50L79.67 12.50Q79.73 12.50 78.82 12.14L78.82 12.14L78.82 12.14Q77.91 11.79 77.22 11.79L77.22 11.79L77.22 11.79Q76.71 11.79 76.06 11.94L76.06 11.94L76.06 11.94Q75.74 12.03 75.42 12.11L75.42 12.11L75.42 12.11Q76.16 10.77 77.10 10.25L77.10 10.25L77.10 10.25Q77.83 9.86 78.97 9.86L78.97 9.86L78.97 9.86Q79.28 9.86 79.83 10.00L79.83 10.00L79.83 10.00Q80.47 10.15 80.70 10.18L80.70 10.18L80.70 10.18Q80.12 9.55 78.93 9.30L78.93 9.30L78.93 9.30Q77.36 8.97 77.18 8.89L77.18 8.89L77.18 8.89Q76.40 8.53 76.40 7.46L76.40 7.46L76.40 7.46Q76.40 6.87 77.59 5.45L77.59 5.45L77.59 5.45Q78.79 4.03 79.42 4.03L79.42 4.03L79.42 4.03Q79.39 4.03 80.25 4.41L80.25 4.41L80.25 4.41Q81.12 4.79 81.94 4.79L81.94 4.79L81.94 4.79Q82.42 4.79 82.88 4.63L82.88 4.63L82.88 4.63Q83.48 4.42 83.66 4.40ZM101.05 8.05L101.05 8.05L101.05 8.05Q101.05 9.10 99.55 10.79L99.55 10.79L99.55 10.79Q98 12.54 96.87 12.54L96.87 12.54L96.87 12.54Q96.17 12.54 94.69 12.01L94.69 12.01L94.69 12.01Q93.21 11.48 91.97 11.48L91.97 11.48L91.97 11.48Q91.31 11.48 91.06 11.66L91.06 11.66L91.06 11.66Q90.72 11.91 90.47 11.97L90.47 11.97L90.47 11.97Q90.38 11.89 90.38 11.86L90.38 11.86L90.38 11.86Q90.38 11.35 91.45 10.35L91.45 10.35L91.45 10.35Q92.44 9.39 92.78 9.37L92.78 9.37L92.78 9.37Q92.86 9.37 93.17 9.27L93.17 9.27L93.17 9.27Q93.48 9.18 94.14 9.18L94.14 9.18L94.14 9.18Q95.31 9.18 96.00 9.39L96.00 9.39L96.00 9.39Q97.87 10.02 98.73 10.23L98.73 10.23L98.73 10.23Q98.74 10.22 98.74 10.09L98.74 10.09L98.74 10.09Q98.74 9.39 98.01 8.69L98.01 8.69L98.01 8.69Q97.27 7.98 96.53 7.98L96.53 7.98L95.44 7.98L95.44 7.98Q95.40 7.98 95.31 7.92L95.31 7.92L95.31 7.92Q95.23 7.87 95.19 7.87L95.19 7.87L94.16 7.87L94.16 7.87Q93.95 7.87 92.99 7.49L92.99 7.49L92.99 7.49Q92.20 7.18 91.99 7.07L91.99 7.07L91.99 7.07Q91.73 6.94 91.43 6.30L91.43 6.30L91.43 6.30Q91.17 5.70 91.17 5.42L91.17 5.42L91.17 5.42Q91.17 4.54 91.87 3.53L91.87 3.53L91.87 3.53Q92.54 2.59 93.62 1.81L93.62 1.81L93.62 1.81Q93.90 1.55 94.19 1.30L94.19 1.30L94.19 1.30Q94.68 0.88 94.91 0.88L94.91 0.88L94.91 0.88Q94.98 0.88 95.02 0.92L95.02 0.92L95.02 0.92Q95.14 1.05 95.85 1.39L95.85 1.39L95.85 1.39Q96.56 1.74 96.71 1.74L96.71 1.74L96.71 1.74Q96.75 1.74 96.78 1.72L96.78 1.72L96.78 1.72Q96.81 1.71 96.85 1.71L96.85 1.71L96.85 1.71Q96.88 1.71 97.10 1.82L97.10 1.82L97.10 1.82Q97.31 1.93 97.41 1.95L97.41 1.95L97.41 1.95Q98.73 2.17 99.32 2.17L99.32 2.17L99.32 2.17Q99.72 2.17 99.77 2.15L99.77 2.15L99.77 2.15Q99.82 2.13 100.39 1.85L100.39 1.85L100.60 1.90L100.60 1.90Q100.10 3.00 99.11 3.73L99.11 3.73L99.11 3.73Q98.13 4.47 97.22 4.47L97.22 4.47L97.22 4.47Q96.00 4.47 95.06 4.20L95.06 4.20L95.06 4.20Q93.70 3.81 93.60 3.78L93.60 3.78L93.60 3.78Q93.72 4.05 93.83 4.30L93.83 4.30L93.83 4.30Q94.00 4.63 94.21 4.75L94.21 4.75L94.21 4.75Q95.76 5.56 96.84 5.56L96.84 5.56L96.84 5.56Q96.87 5.56 97.01 5.54L97.01 5.54L97.01 5.54Q97.16 5.53 97.20 5.53L97.20 5.53L97.20 5.53Q97.24 5.53 97.52 5.60L97.52 5.60L97.52 5.60Q97.80 5.67 97.85 5.67L97.85 5.67L98.87 5.67L98.87 5.67Q99.41 5.67 100.13 6.27L100.13 6.27L100.13 6.27Q100.86 6.87 100.93 7.35L100.93 7.35L100.93 7.35Q100.95 7.50 101.00 7.61L101.00 7.61L101.00 7.61Q101.05 7.71 101.05 8.05ZM109.16 4.47L109.16 4.47L109.16 4.47Q109.16 5.00 107.83 5.98L107.83 5.98L107.83 5.98Q106.64 6.85 106.39 6.86L106.39 6.86L106.39 6.86Q106.30 6.87 106.08 6.89L106.08 6.89L106.08 6.89Q105.85 6.92 105.81 6.92L105.81 6.92L105.81 6.92Q105.03 6.92 104.31 6.19L104.31 6.19L104.31 6.19Q103.99 6.66 103.99 7.76L103.99 7.76L103.99 7.76Q103.99 8.78 104.51 9.53L104.51 9.53L104.51 9.53Q105.15 10.47 106.34 10.47L106.34 10.47L106.34 10.47Q106.75 10.47 107.24 10.22L107.24 10.22L107.24 10.22Q107.98 9.84 108.33 9.72L108.33 9.72L108.33 9.72Q108.12 10.57 106.82 11.50L106.82 11.50L106.82 11.50Q105.52 12.43 104.58 12.43L104.58 12.43L104.58 12.43Q103.35 12.43 102.65 11.54L102.65 11.54L102.65 11.54Q102.03 10.72 102.03 9.51L102.03 9.51L102.03 9.51Q102.03 9.49 102.13 8.50L102.13 8.50L102.13 8.50Q102.20 7.81 103.15 6.43L103.15 6.43L103.15 6.43Q103.36 6.13 104.27 5.22L104.27 5.22L104.27 5.22Q105.41 4.12 105.77 4.12L105.77 4.12L105.77 4.12Q106.08 4.12 106.52 4.54L106.52 4.54L106.52 4.54Q106.96 4.96 107.58 4.96L107.58 4.96L107.58 4.96Q107.91 4.96 108.23 4.77L108.23 4.77L108.23 4.77Q108.77 4.47 109.07 4.35L109.07 4.35L109.07 4.35Q109.16 4.44 109.16 4.47ZM119.21 10.95L119.21 10.95L119.21 10.95Q119.21 11.34 118.33 12.11L118.33 12.11L118.33 12.11Q117.53 12.80 117.29 12.85L117.29 12.85L117.29 12.85Q117.04 12.31 116.27 12.31L116.27 12.31L116.27 12.31Q115.93 12.31 115.25 12.46L115.25 12.46L114.70 12.40L114.70 12.40Q115.02 11.86 115.50 11.24L115.50 11.24L115.50 11.24Q115.88 10.74 115.99 10.50L115.99 10.50L115.99 10.50Q116.16 10.12 116.16 9.53L116.16 9.53L116.16 9.53Q116.16 8.64 115.64 7.67L115.64 7.67L115.64 7.67Q114.98 6.41 113.90 6.41L113.90 6.41L113.90 6.41Q113.64 6.41 112.70 7.34L112.70 7.34L112.70 8.92L112.70 8.92Q112.70 8.96 112.66 9.01L112.66 9.01L112.66 9.01Q112.63 9.06 112.63 9.10L112.63 9.10L112.63 10.35L112.63 10.35Q112.63 10.35 113.06 10.67L113.06 10.67L113.06 10.67Q113.40 10.92 113.40 11.02L113.40 11.02L113.40 11.02Q113.40 11.41 112.52 12.18L112.52 12.18L112.52 12.18Q111.73 12.87 111.47 12.92L111.47 12.92L111.47 12.92Q111.38 12.82 110.64 12.25L110.64 12.25L110.64 10.78L110.64 10.78Q110.64 10.72 110.68 10.70L110.68 10.70L110.68 10.70Q110.73 10.67 110.73 10.61L110.73 10.61L110.73 8.46L110.73 8.46Q110.73 8.41 110.68 8.34L110.68 8.34L110.68 8.34Q110.64 8.26 110.64 8.20L110.64 8.20L110.64 4.07L110.64 4.07Q110.42 3.79 109.82 3.28L109.82 3.28L109.82 3.28Q109.66 3.36 109.51 3.46L109.51 3.46L109.51 3.46Q109.30 3.58 109.06 3.61L109.06 3.61L109.06 3.42L109.06 3.42Q109.06 3.08 110.19 2.11L110.19 2.11L110.19 2.11Q111.29 1.18 111.52 1.18L111.52 1.18L111.52 1.18Q111.64 1.18 112.13 1.66L112.13 1.66L112.13 1.66Q112.62 2.14 112.63 2.24L112.63 2.24L112.69 6.57L112.69 6.57Q114.84 4.44 115.67 4.44L115.67 4.44L115.67 4.44Q116.84 4.44 117.56 5.73L117.56 5.73L117.56 5.73Q118.13 6.73 118.13 7.74L118.13 7.74L118.13 7.74Q118.13 9.07 117.12 10.37L117.12 10.37L117.12 10.37Q117.31 10.37 117.66 10.35L117.66 10.35L117.66 10.35Q118.01 10.33 118.02 10.33L118.02 10.33L118.02 10.33Q118.36 10.33 118.69 10.43L118.69 10.43L118.69 10.43Q119.21 10.60 119.21 10.95ZM128.62 7.03L128.62 7.03L128.62 7.03Q128.62 8.20 127.25 9.55L127.25 9.55L127.25 9.55Q125.87 10.78 124.52 12.01L124.52 12.01L124.52 12.01Q124.36 12.17 123.86 12.26L123.86 12.26L123.86 12.26Q123.41 12.36 123.05 12.36L123.05 12.36L123.05 12.36Q122.07 12.36 121.18 11.56L121.18 11.56L121.18 11.56Q120.26 10.72 120.26 9.67L120.26 9.67L120.26 9.67Q120.26 8.26 121.38 6.47L121.38 6.47L121.38 6.47Q122.54 4.61 123.97 3.89L123.97 3.89L123.97 3.89Q123.98 3.92 123.97 4.06L123.97 4.06L123.97 4.06Q123.97 4.17 124.03 4.17L124.03 4.17L124.03 4.17Q124.17 4.17 124.70 4.03L124.70 4.03L124.70 4.03Q125.24 3.89 125.68 3.89L125.68 3.89L125.68 3.89Q126.94 3.89 127.81 4.89L127.81 4.89L127.81 4.89Q128.62 5.82 128.62 7.03ZM126.46 9.32L126.46 9.32L126.46 8.29L126.46 8.29Q126.46 7.77 125.73 6.97L125.73 6.97L125.73 6.97Q124.99 6.17 124.54 6.09L124.54 6.09L124.54 6.09Q123.96 5.99 123.77 5.99L123.77 5.99L123.77 5.99Q122.89 5.99 122.61 6.45L122.61 6.45L122.61 6.45Q122.42 6.79 122.42 7.76L122.42 7.76L122.42 7.76Q122.42 8.71 123.24 9.48L123.24 9.48L123.24 9.48Q124.07 10.25 124.95 10.25L124.95 10.25L124.95 10.25Q125.44 10.25 125.64 10.12L125.64 10.12L125.64 10.12Q125.78 10.04 126.46 9.32ZM138.28 7.03L138.28 7.03L138.28 7.03Q138.28 8.20 136.91 9.55L136.91 9.55L136.91 9.55Q135.53 10.78 134.18 12.01L134.18 12.01L134.18 12.01Q134.02 12.17 133.52 12.26L133.52 12.26L133.52 12.26Q133.07 12.36 132.71 12.36L132.71 12.36L132.71 12.36Q131.73 12.36 130.84 11.56L130.84 11.56L130.84 11.56Q129.92 10.72 129.92 9.67L129.92 9.67L129.92 9.67Q129.92 8.26 131.04 6.47L131.04 6.47L131.04 6.47Q132.20 4.61 133.63 3.89L133.63 3.89L133.63 3.89Q133.64 3.92 133.63 4.06L133.63 4.06L133.63 4.06Q133.63 4.17 133.69 4.17L133.69 4.17L133.69 4.17Q133.83 4.17 134.37 4.03L134.37 4.03L134.37 4.03Q134.90 3.89 135.34 3.89L135.34 3.89L135.34 3.89Q136.60 3.89 137.47 4.89L137.47 4.89L137.47 4.89Q138.28 5.82 138.28 7.03ZM136.12 9.32L136.12 9.32L136.12 8.29L136.12 8.29Q136.12 7.77 135.39 6.97L135.39 6.97L135.39 6.97Q134.65 6.17 134.20 6.09L134.20 6.09L134.20 6.09Q133.62 5.99 133.43 5.99L133.43 5.99L133.43 5.99Q132.55 5.99 132.27 6.45L132.27 6.45L132.27 6.45Q132.08 6.79 132.08 7.76L132.08 7.76L132.08 7.76Q132.08 8.71 132.90 9.48L132.90 9.48L132.90 9.48Q133.73 10.25 134.61 10.25L134.61 10.25L134.61 10.25Q135.10 10.25 135.30 10.12L135.30 10.12L135.30 10.12Q135.44 10.04 136.12 9.32ZM143.91 9.95L143.91 9.95L143.91 9.95Q143.91 10.51 142.76 11.61L142.76 11.61L142.76 11.61Q141.68 12.61 141.37 12.66L141.37 12.66L141.37 12.66Q141.27 12.53 140.74 12.11L140.74 12.11L140.74 12.11Q140.45 11.87 140.45 11.55L140.45 11.55L140.45 7.41L140.45 7.41Q140.45 7.38 140.49 7.19L140.49 7.19L140.49 7.19Q140.53 7.00 140.53 6.94L140.53 6.94L140.53 3.92L140.53 3.92Q140.32 3.61 140.14 3.44L140.14 3.44L140.14 3.44Q139.71 3.74 139.27 3.93L139.27 3.93L139.27 3.93Q139.22 3.88 139.22 3.75L139.22 3.75L139.22 3.75Q139.22 3.30 140.29 2.24L140.29 2.24L140.29 2.24Q141.37 1.18 141.83 1.18L141.83 1.18L141.83 1.18Q141.96 1.18 142.30 1.48L142.30 1.48L142.30 1.48Q142.63 1.79 142.63 1.93L142.63 1.93L142.63 5.28L142.63 5.28Q142.63 5.32 142.59 5.43L142.59 5.43L142.59 5.43Q142.55 5.54 142.55 5.60L142.55 5.60L142.55 9.59L142.55 9.59Q142.55 9.72 142.76 9.97L142.76 9.97L142.76 9.97Q142.97 10.22 143.11 10.22L143.11 10.22L143.11 10.22Q143.14 10.22 143.40 10.04L143.40 10.04L143.40 10.04Q143.67 9.87 143.85 9.81L143.85 9.81L143.85 9.81Q143.91 9.87 143.91 9.95ZM159.81 7.03L159.81 7.03L159.81 7.03Q159.81 8.20 158.44 9.55L158.44 9.55L158.44 9.55Q157.07 10.78 155.71 12.01L155.71 12.01L155.71 12.01Q155.55 12.17 155.05 12.26L155.05 12.26L155.05 12.26Q154.60 12.36 154.24 12.36L154.24 12.36L154.24 12.36Q153.26 12.36 152.38 11.56L152.38 11.56L152.38 11.56Q151.45 10.72 151.45 9.67L151.45 9.67L151.45 9.67Q151.45 8.26 152.57 6.47L152.57 6.47L152.57 6.47Q153.73 4.61 155.16 3.89L155.16 3.89L155.16 3.89Q155.18 3.92 155.16 4.06L155.16 4.06L155.16 4.06Q155.16 4.17 155.22 4.17L155.22 4.17L155.22 4.17Q155.36 4.17 155.90 4.03L155.90 4.03L155.90 4.03Q156.44 3.89 156.87 3.89L156.87 3.89L156.87 3.89Q158.13 3.89 159.00 4.89L159.00 4.89L159.00 4.89Q159.81 5.82 159.81 7.03ZM157.65 9.32L157.65 9.32L157.65 8.29L157.65 8.29Q157.65 7.77 156.92 6.97L156.92 6.97L156.92 6.97Q156.18 6.17 155.74 6.09L155.74 6.09L155.74 6.09Q155.15 5.99 154.97 5.99L154.97 5.99L154.97 5.99Q154.08 5.99 153.80 6.45L153.80 6.45L153.80 6.45Q153.61 6.79 153.61 7.76L153.61 7.76L153.61 7.76Q153.61 8.71 154.43 9.48L154.43 9.48L154.43 9.48Q155.26 10.25 156.14 10.25L156.14 10.25L156.14 10.25Q156.63 10.25 156.83 10.12L156.83 10.12L156.83 10.12Q156.97 10.04 157.65 9.32ZM167.36 4.42L167.36 4.42L167.36 4.42Q167.36 4.94 166.22 5.91L166.22 5.91L166.22 5.91Q165.09 6.87 164.54 6.87L164.54 6.87L164.54 6.87Q163.63 6.87 163.20 6.43L163.20 6.43L163.20 6.43Q163.07 7.34 163.04 7.85L163.04 7.85L163.04 7.85Q162.95 9.74 161.81 11.70L161.81 11.70L161.81 11.70Q160.62 13.76 158.73 15.11L158.73 15.11L158.73 15.11Q158.63 15.01 158.63 14.99L158.63 14.99L158.63 14.99Q158.63 14.92 159.49 13.65L159.49 13.65L159.49 13.65Q160.48 12.14 160.68 11.83L160.68 11.83L160.68 11.83Q160.75 11.72 160.99 10.51L160.99 10.51L160.99 10.51Q161.24 9.20 161.24 8.68L161.24 8.68L161.24 5.22L161.24 5.22Q161.24 5.29 161.18 4.75L161.18 4.75L161.18 4.75Q161.14 4.27 161.18 4.02L161.18 4.02L161.18 4.02Q161.21 3.81 161.62 3.35L161.62 3.35L161.62 3.35Q161.98 2.93 162.34 2.52L162.34 2.52L162.34 2.52Q163.52 1.13 164.39 0.73L164.39 0.73L164.56 0.73L164.56 0.73Q164.58 1.01 165.00 1.20L165.00 1.20L165.00 1.20Q165.35 1.36 165.72 1.36L165.72 1.36L165.72 1.36Q166.14 1.36 166.40 1.26L166.40 1.26L166.40 1.26Q166.75 1.11 167.10 0.95L167.10 0.95L167.27 0.95L167.27 1.12L167.27 1.12Q167.27 1.41 166.45 2.17L166.45 2.17L166.45 2.17Q165.69 2.86 165.44 2.95L165.44 2.95L165.44 2.95Q164.58 3.26 164.00 3.26L164.00 3.26L164.00 3.26Q163.53 3.26 163.13 3.04L163.13 3.04L163.13 3.04Q163.10 3.25 163.18 3.79L163.18 3.79L163.21 5.31L163.21 5.31Q164.39 4.21 164.70 4.23L164.70 4.23L164.70 4.23Q165.37 4.93 165.94 4.93L165.94 4.93L165.94 4.93Q166.32 4.93 166.46 4.86L166.46 4.86L166.46 4.86Q166.95 4.59 167.36 4.42ZM187.19 6.86L187.19 6.86L187.19 6.86Q187.19 7.57 186.93 8.43L186.93 8.43L186.93 8.43Q186.61 9.48 186.05 10.00L186.05 10.00L186.05 10.00Q186.13 10.09 186.49 10.23L186.49 10.23L186.49 10.23Q187.01 10.44 187.05 10.47L187.05 10.47L187.05 10.65L187.05 10.65Q187.05 10.99 186.12 11.85L186.12 11.85L186.12 11.85Q185.18 12.71 184.84 12.71L184.84 12.71L184.84 12.71Q184.80 12.71 184.37 12.51L184.37 12.51L184.37 12.51Q183.95 12.31 183.81 12.31L183.81 12.31L183.81 12.31Q183.78 12.31 183.67 12.37L183.67 12.37L183.67 12.37Q183.55 12.43 183.30 12.50L183.30 12.50L183.30 12.50Q183.26 12.43 183.26 12.35L183.26 12.35L183.26 12.35Q183.26 12.08 183.82 11.47L183.82 11.47L183.82 11.47Q184.52 10.70 184.58 10.60L184.58 10.60L184.58 10.60Q184.63 10.50 184.67 10.23L184.67 10.23L184.67 10.23Q184.70 9.95 184.77 9.84L184.77 9.84L184.77 9.84Q184.93 9.52 184.93 8.89L184.93 8.89L184.93 8.89Q184.93 8.51 184.90 8.40L184.90 8.40L184.90 8.40Q184.77 7.91 184.63 7.42L184.63 7.42L184.63 7.42Q184.62 7.18 184.58 6.76L184.58 6.76L184.58 6.76Q184.39 6.03 183.29 4.93L183.29 4.93L183.29 4.93Q182.60 4.27 181.92 3.61L181.92 3.61L181.92 3.61Q181.75 3.72 181.57 3.92L181.57 3.92L181.57 6.45L181.57 6.45Q181.57 6.50 181.62 6.60L181.62 6.60L181.62 6.60Q181.66 6.71 181.66 6.75L181.66 6.75L181.66 9.39L181.66 9.39Q181.83 9.45 182.07 9.67L182.07 9.67L182.07 9.67Q182.42 10.02 182.50 10.08L182.50 10.08L182.50 10.08Q182.39 10.44 181.68 11.28L181.68 11.28L181.68 11.28Q180.82 12.31 180.29 12.31L180.29 12.31L180.29 12.31Q180.19 12.31 180.03 12.10L180.03 12.10L180.03 12.10Q179.80 11.83 179.69 11.76L179.69 11.76L179.69 11.76Q179.59 11.77 179.41 11.62L179.41 11.62L179.41 9.06L179.41 9.06Q179.41 9.02 179.35 8.86L179.35 8.86L179.35 8.86Q179.30 8.71 179.30 8.67L179.30 8.67L179.30 5.45L179.30 5.45Q178.77 4.89 177.58 3.71L177.58 3.71L177.58 3.71Q177.34 3.84 177.10 3.96L177.10 3.96L177.10 3.96Q176.79 4.12 176.67 4.30L176.67 4.30L176.67 4.30Q176.50 4.52 176.36 5.01L176.36 5.01L176.36 5.01Q176.25 5.42 176.25 5.53L176.25 5.53L176.25 6.55L176.25 6.55Q176.25 6.59 176.21 6.71L176.21 6.71L176.21 6.71Q176.18 6.83 176.18 6.87L176.18 6.87L176.18 6.87Q176.18 7.60 176.57 8.30L176.57 8.30L176.57 8.30Q177.02 9.11 177.87 9.69L177.87 9.69L177.87 9.69Q178.12 9.76 178.39 9.83L178.39 9.83L178.39 9.83Q178.85 9.98 178.85 10.15L178.85 10.15L178.85 10.15Q178.85 10.51 177.91 11.41L177.91 11.41L177.91 11.41Q176.97 12.31 176.68 12.31L176.68 12.31L176.68 12.31Q176.64 12.31 176.51 12.21L176.51 12.21L176.51 12.21Q176.37 12.12 176.29 12.11L176.29 12.11L176.29 12.11Q176.08 12.10 175.70 11.97L175.70 11.97L175.70 11.97Q175.38 11.79 174.94 11.28L174.94 11.28L174.94 11.28Q174.80 11.21 174.48 10.91L174.48 10.91L174.48 10.91Q174.26 10.63 174.06 9.95L174.06 9.95L174.06 9.95Q173.88 9.34 173.88 8.96L173.88 8.96L173.88 8.96Q173.88 8.93 173.93 8.67L173.93 8.67L173.93 8.67Q173.98 8.40 173.98 8.34L173.98 8.34L173.98 7.42L173.98 7.42Q173.98 7.39 174.08 7.20L174.08 7.20L174.08 7.20Q174.17 7.01 174.17 6.93L174.17 6.93L174.17 6.93Q174.27 5.75 175.85 4.10L175.85 4.10L175.85 4.10Q177.25 2.63 178.54 1.97L178.54 1.97L178.54 1.97Q178.64 1.92 179.09 1.58L179.09 1.58L179.09 1.58Q179.47 1.29 179.56 1.29L179.56 1.29L179.75 1.29L179.75 1.29Q180.53 2.24 181.37 3.02L181.37 3.02L181.37 3.02Q183.46 1.18 183.88 1.18L183.88 1.18L183.88 1.18Q183.96 1.18 184.39 1.60L184.39 1.60L184.39 1.60Q184.79 1.97 184.94 2.16L184.94 2.16L184.94 2.16Q185.35 2.51 186.06 3.23L186.06 3.23L186.06 3.23Q186.63 3.93 186.77 4.47L186.77 4.47L186.77 4.47Q186.84 4.90 186.94 5.31L186.94 5.31L186.94 5.31Q187.03 5.73 187.18 6.13L187.18 6.13L187.18 6.13Q187.19 6.16 187.19 6.86ZM198.11 10.37L198.30 10.37L198.30 10.37Q198.35 10.79 197.32 11.80L197.32 11.80L197.32 11.80Q196.29 12.81 195.94 12.81L195.94 12.81L195.94 12.81Q195.85 12.81 195.24 12.24L195.24 12.24L195.24 12.24Q194.64 11.68 194.71 11.45L194.71 11.45L194.68 10.49L194.68 10.49Q193.03 11.86 192.68 12.08L192.68 12.08L192.68 12.08Q191.90 12.57 190.93 12.57L190.93 12.57L190.93 12.57Q189.97 12.57 189.25 12.05L189.25 12.05L189.25 12.05Q188.43 11.47 188.43 10.43L188.43 10.43L188.43 10.43Q188.43 8.65 190.39 6.38L190.39 6.38L190.39 6.38Q190.34 6.34 190.23 6.34L190.23 6.34L190.23 6.34Q190.13 6.34 189.91 6.40L189.91 6.40L189.91 6.40Q189.69 6.45 189.64 6.45L189.64 6.45L189.64 6.45Q189.46 6.45 189.32 6.31L189.32 6.31L189.32 6.31Q189.36 6.08 190.12 5.22L190.12 5.22L190.12 5.22Q190.93 4.28 191.30 4.28L191.30 4.28L191.30 4.28Q191.35 4.28 191.41 4.33L191.41 4.33L191.41 4.33Q191.46 4.37 191.51 4.37L191.51 4.37L191.51 4.37Q191.56 4.37 191.65 4.33L191.65 4.33L191.65 4.33Q191.74 4.28 191.80 4.30L191.80 4.30L193.02 4.30L193.02 4.30Q193.07 4.34 193.07 4.44L193.07 4.44L193.07 4.44Q193.07 4.75 192.42 5.35L192.42 5.35L192.42 5.35Q191.49 6.20 191.17 6.62L191.17 6.62L191.17 6.62Q190.51 7.53 190.51 8.55L190.51 8.55L190.51 8.55Q190.51 9.48 191.24 10.01L191.24 10.01L191.24 10.01Q191.88 10.49 192.81 10.49L192.81 10.49L192.81 10.49Q193.80 10.49 194.71 9.60L194.71 9.60L194.71 7.78L194.71 7.78Q194.71 7.74 194.67 7.64L194.67 7.64L194.67 7.64Q194.63 7.55 194.63 7.49L194.63 7.49L194.63 6.40L194.63 6.40Q194.53 6.34 193.56 5.91L193.56 5.91L193.56 5.70L193.56 5.70Q193.56 5.47 194.43 4.63L194.43 4.63L194.43 4.63Q195.29 3.79 195.52 3.79L195.52 3.79L195.52 3.79Q195.65 3.79 196.70 4.38L196.70 4.38L196.70 5.54L196.70 5.54Q196.70 5.59 196.74 5.66L196.74 5.66L196.74 5.66Q196.78 5.73 196.78 5.77L196.78 5.77L196.78 9.73L196.78 9.73Q196.94 9.84 197.33 10.23L197.33 10.23L197.33 10.23Q197.65 10.57 197.71 10.57L197.71 10.57L197.71 10.57Q197.75 10.57 197.90 10.48L197.90 10.48L197.90 10.48Q198.06 10.39 198.11 10.37L198.11 10.37ZM206.67 4.40L206.67 4.40L206.67 4.40Q205.60 6.72 203.18 6.72L203.18 6.72L203.18 6.72Q202.93 6.72 201.63 6.45L201.63 6.45L201.63 6.45Q201.84 7.01 202.97 7.25L202.97 7.25L202.97 7.25Q204.67 7.63 204.89 7.73L204.89 7.73L204.89 7.73Q205.87 8.16 205.87 9.23L205.87 9.23L205.87 9.23Q205.87 9.87 204.37 11.23L204.37 11.23L204.37 11.23Q202.97 12.50 202.68 12.50L202.68 12.50L202.68 12.50Q202.73 12.50 201.82 12.14L201.82 12.14L201.82 12.14Q200.91 11.79 200.23 11.79L200.23 11.79L200.23 11.79Q199.71 11.79 199.07 11.94L199.07 11.94L199.07 11.94Q198.74 12.03 198.42 12.11L198.42 12.11L198.42 12.11Q199.16 10.77 200.10 10.25L200.10 10.25L200.10 10.25Q200.83 9.86 201.98 9.86L201.98 9.86L201.98 9.86Q202.29 9.86 202.83 10.00L202.83 10.00L202.83 10.00Q203.48 10.15 203.70 10.18L203.70 10.18L203.70 10.18Q203.13 9.55 201.94 9.30L201.94 9.30L201.94 9.30Q200.37 8.97 200.19 8.89L200.19 8.89L200.19 8.89Q199.40 8.53 199.40 7.46L199.40 7.46L199.40 7.46Q199.40 6.87 200.60 5.45L200.60 5.45L200.60 5.45Q201.80 4.03 202.43 4.03L202.43 4.03L202.43 4.03Q202.40 4.03 203.26 4.41L203.26 4.41L203.26 4.41Q204.12 4.79 204.95 4.79L204.95 4.79L204.95 4.79Q205.42 4.79 205.88 4.63L205.88 4.63L205.88 4.63Q206.49 4.42 206.67 4.40ZM210.50 1.85L210.71 1.85L210.71 1.85Q210.48 2.52 209.62 3.30L209.62 3.30L209.62 3.30Q208.75 4.09 208.26 4.03L208.26 4.03L208.26 4.03Q208.04 3.74 207.61 3.25L207.61 3.25L207.61 3.25Q207.19 3.57 207.02 3.57L207.02 3.57L207.02 3.57Q206.96 3.51 206.96 3.43L206.96 3.43L206.96 3.43Q206.96 3.02 207.98 2.10L207.98 2.10L207.98 2.10Q208.99 1.18 209.31 1.18L209.31 1.18L209.31 1.18Q209.45 1.18 209.78 1.53L209.78 1.53L209.78 1.53Q209.99 1.76 210.20 2.00L210.20 2.00L210.20 2.00Q210.29 1.96 210.50 1.85L210.50 1.85ZM210.76 9.34L210.76 9.34L210.76 9.34Q210.76 10.02 209.82 11.32L209.82 11.32L209.82 11.32Q208.88 12.61 208.35 12.60L208.35 12.60L208.18 12.60L208.18 12.60Q208.28 12.31 208.56 11.80L208.56 11.80L208.56 11.80Q208.77 11.44 208.77 11.14L208.77 11.14L208.77 11.14Q208.77 11.10 208.73 10.91L208.73 10.91L208.73 10.91Q208.68 10.72 208.68 10.67L208.68 10.67L208.68 8.53L208.68 8.53Q208.68 8.05 208.54 7.57L208.54 7.57L208.54 7.57Q208.35 6.93 207.98 6.93L207.98 6.93L207.98 6.93Q207.94 6.93 207.78 7.05L207.78 7.05L207.78 7.05Q207.62 7.17 207.56 7.17L207.56 7.17L207.31 7.17L207.31 7.17Q207.49 6.52 208.52 5.63L208.52 5.63L208.52 5.63Q209.47 4.79 209.80 4.82L209.80 4.82L209.80 4.82Q210.07 4.96 210.43 5.29L210.43 5.29L210.43 5.29Q210.69 5.80 210.69 6.64L210.69 6.64L210.69 8.76L210.69 8.76Q210.69 8.79 210.72 9.04L210.72 9.04L210.72 9.04Q210.76 9.28 210.76 9.34ZM219.21 4.47L219.21 4.47L219.21 4.47Q219.21 5.00 217.88 5.98L217.88 5.98L217.88 5.98Q216.69 6.85 216.44 6.86L216.44 6.86L216.44 6.86Q216.36 6.87 216.13 6.89L216.13 6.89L216.13 6.89Q215.91 6.92 215.87 6.92L215.87 6.92L215.87 6.92Q215.08 6.92 214.37 6.19L214.37 6.19L214.37 6.19Q214.05 6.66 214.05 7.76L214.05 7.76L214.05 7.76Q214.05 8.78 214.56 9.53L214.56 9.53L214.56 9.53Q215.21 10.47 216.40 10.47L216.40 10.47L216.40 10.47Q216.80 10.47 217.29 10.22L217.29 10.22L217.29 10.22Q218.04 9.84 218.39 9.72L218.39 9.72L218.39 9.72Q218.18 10.57 216.87 11.50L216.87 11.50L216.87 11.50Q215.57 12.43 214.63 12.43L214.63 12.43L214.63 12.43Q213.40 12.43 212.70 11.54L212.70 11.54L212.70 11.54Q212.09 10.72 212.09 9.51L212.09 9.51L212.09 9.51Q212.09 9.49 212.18 8.50L212.18 8.50L212.18 8.50Q212.25 7.81 213.21 6.43L213.21 6.43L213.21 6.43Q213.42 6.13 214.33 5.22L214.33 5.22L214.33 5.22Q215.46 4.12 215.82 4.12L215.82 4.12L215.82 4.12Q216.13 4.12 216.57 4.54L216.57 4.54L216.57 4.54Q217.01 4.96 217.63 4.96L217.63 4.96L217.63 4.96Q217.97 4.96 218.29 4.77L218.29 4.77L218.29 4.77Q218.82 4.47 219.13 4.35L219.13 4.35L219.13 4.35Q219.21 4.44 219.21 4.47Z"></path></g><defs data-v-423bf9ae=""><linearGradient data-v-423bf9ae="" gradientTransform="rotate(25)" id="9e0c0c24-6849-4b1b-a73c-fcc39e8ae7ff" x1="0%" y1="0%" x2="100%" y2="0%"><stop data-v-423bf9ae="" offset="0%" style="stop-color: rgb(78, 26, 112); stop-opacity: 1;"></stop><stop data-v-423bf9ae="" offset="100%" style="stop-color: rgb(43, 76, 242); stop-opacity: 1;"></stop></linearGradient></defs><g data-v-423bf9ae="" id="51e5be27-e6d5-42bb-9b02-0efe40998339" transform="matrix(3.02033690133878,0,0,3.02033690133878,0.6746095785795205,-6.44676146975133)" stroke="none" fill="url(#9e0c0c24-6849-4b1b-a73c-fcc39e8ae7ff)"><circle cx="25.044" cy="25.043" r="6.956"></circle><circle cx="6.956" cy="25.043" r="6.956"></circle><path d="M.172 2.201H13.74v13.568H.172zM18.432 2.201H32v13.568H18.432z"></path></g><!----></svg>